<svg xmlns="http://www.w3.org/2000/svg" width="20" height="18.333" viewBox="0 0 20 18.333">
    <path fill="#333" d="M21.692 13.686l-9.166-7.5a.833.833 0 0 0-1.054 0l-9.166 7.5a.834.834 0 0 0 1.054 1.292l1.14-.933v7.787a2.5 2.5 0 0 0 2.5 2.5h10a2.5 2.5 0 0 0 2.5-2.5v-7.788l1.14.933a.834.834 0 0 0 1.054-1.292zm-11.36 8.979V18.5a.833.833 0 0 1 .833-.833h1.667a.833.833 0 0 1 .833.833v4.167zm7.5-.833a.833.833 0 0 1-.833.833h-1.667V18.5a2.5 2.5 0 0 0-2.5-2.5h-1.667a2.5 2.5 0 0 0-2.5 2.5v4.167H7a.833.833 0 0 1-.833-.833v-9.15L12 7.909l5.833 4.773z" transform="translate(-1.999 -5.999)"/>
</svg>
